# xmcd CD database file
#
# Track frame offsets:
#	150
#	20435
#	37622
#	56120
#	76033
#	92092
#	117553
#	135103
#	152513
#	170411
#	189115
#	229269
#
# Disc length: 3231 seconds
#
# Revision: 0
# Processed by: cddbd v1.4PL0 Copyright (c) Steve Scherf et al.
# Submitted via: CDex 1.51
#
DISCID=810c9d0c
DTITLE=Bluestalkers - Welcome to the Swamp
DYEAR=2001
DGENRE=Blues
TTITLE0=Chicken Heads
TTITLE1=All Your Love
TTITLE2=Mellow Down Easy
TTITLE3=Lover Man
TTITLE4=In the Night
TTITLE5=Boo Frog
TTITLE6=Don't Lie To Me
TTITLE7=Don't Let my Baby Ride
TTITLE8=Big Mamou
TTITLE9=Country Girl
TTITLE10=Welcome to the Swamp
TTITLE11=Frenetic Disgrace
EXTD=YEAR: 2001
EXTT0=
EXTT1=
EXTT2=
EXTT3=
EXTT4=
EXTT5=
EXTT6=
EXTT7=
EXTT8=
EXTT9=
EXTT10=
EXTT11=
PLAYORDER=
